<?xml version="1.0" encoding="UTF-8"?>
<svg xmlns="http://www.w3.org/2000/svg" xmlns:xlink="http://www.w3.org/1999/xlink" width="251pt" height="52pt" viewBox="0 0 251 52" version="1.1">
<g id="surface1">
<path style=" stroke:none;fill-rule:nonzero;fill:rgb(100%,100%,100%);fill-opacity:1;" d="M 50.054688 27.0625 C 50.054688 24.367188 50.535156 21.761719 51.5 19.246094 C 52.4375 16.753906 53.859375 14.640625 55.761719 12.910156 C 57.484375 11.339844 59.476562 10.238281 61.738281 9.609375 C 64.019531 8.980469 66.671875 8.667969 69.691406 8.667969 C 74.347656 8.667969 77.996094 9.855469 80.636719 12.238281 C 83.746094 15.089844 85.300781 19.066406 85.300781 24.164062 C 85.300781 26.835938 84.945312 29.261719 84.226562 31.441406 C 83.511719 33.621094 82.515625 35.4375 81.242188 36.898438 C 79.988281 38.359375 78.5 39.570312 76.777344 40.535156 C 75.03125 41.523438 73.183594 42.242188 71.238281 42.691406 C 69.269531 43.121094 67.1875 43.332031 64.992188 43.332031 C 60.742188 43.332031 57.339844 42.164062 54.789062 39.828125 C 53.132812 38.324219 51.9375 36.449219 51.195312 34.203125 C 50.4375 31.957031 50.054688 29.578125 50.054688 27.0625 Z M 56.566406 25.34375 C 56.566406 26.714844 56.691406 28.09375 56.9375 29.488281 C 57.160156 30.878906 57.5625 32.28125 58.144531 33.699219 C 58.707031 35.136719 59.410156 36.394531 60.261719 37.472656 C 61.109375 38.550781 62.207031 39.4375 63.550781 40.132812 C 64.894531 40.828125 66.390625 41.175781 68.046875 41.175781 C 69.636719 41.175781 71.058594 40.894531 72.3125 40.335938 C 73.542969 39.796875 74.550781 39.078125 75.332031 38.179688 C 76.117188 37.28125 76.765625 36.214844 77.28125 34.976562 C 77.773438 33.742188 78.117188 32.496094 78.320312 31.238281 C 78.519531 29.980469 78.621094 28.667969 78.621094 27.296875 C 78.621094 26.285156 78.578125 25.285156 78.488281 24.296875 C 78.398438 23.289062 78.230469 22.222656 77.984375 21.097656 C 77.738281 19.996094 77.4375 18.941406 77.078125 17.929688 C 76.71875 16.941406 76.25 15.988281 75.667969 15.066406 C 75.085938 14.148438 74.425781 13.359375 73.6875 12.710938 C 72.949219 12.058594 72.066406 11.53125 71.035156 11.125 C 70.007812 10.746094 68.886719 10.554688 67.679688 10.554688 C 66.222656 10.554688 64.871094 10.855469 63.617188 11.464844 C 62.363281 12.070312 61.3125 12.867188 60.460938 13.855469 C 59.632812 14.84375 58.917969 15.988281 58.3125 17.292969 C 57.710938 18.570312 57.261719 19.898438 56.972656 21.265625 C 56.703125 22.636719 56.566406 23.996094 56.566406 25.34375 Z M 98.226562 41.210938 L 92.21875 42.894531 L 91.679688 42.457031 C 91.925781 37 92.050781 29.835938 92.050781 20.964844 C 92.050781 16.785156 91.980469 14.214844 91.847656 13.25 C 91.757812 12.84375 91.578125 12.507812 91.3125 12.238281 C 91.042969 11.945312 90.683594 11.734375 90.238281 11.597656 C 89.8125 11.441406 89.429688 11.328125 89.09375 11.261719 C 88.757812 11.195312 88.335938 11.125 87.820312 11.058594 L 87.820312 10.046875 L 88.1875 9.644531 L 104.402344 9.644531 C 111.136719 9.644531 114.507812 12.148438 114.507812 17.15625 C 114.507812 20.4375 113.476562 23.03125 111.417969 24.9375 C 109.539062 26.714844 106.382812 27.78125 101.953125 28.140625 C 101.683594 28.160156 101.382812 28.160156 101.046875 28.140625 C 100.710938 28.117188 100.351562 28.117188 99.972656 28.140625 C 99.613281 28.160156 99.289062 28.195312 98.996094 28.242188 C 98.683594 28.285156 98.4375 28.410156 98.257812 28.609375 C 98.058594 28.789062 97.957031 29.027344 97.957031 29.320312 C 97.957031 29.992188 98.046875 33.957031 98.226562 41.210938 Z M 97.957031 25.613281 C 97.957031 25.882812 98.082031 26.105469 98.328125 26.285156 C 98.59375 26.464844 98.898438 26.554688 99.234375 26.554688 C 101.875 26.554688 103.964844 25.734375 105.511719 24.097656 C 107.054688 22.457031 107.824219 20.425781 107.824219 18 C 107.824219 16.089844 107.246094 14.496094 106.082031 13.214844 C 104.917969 11.933594 103.316406 11.292969 101.28125 11.292969 C 101.191406 11.292969 100.933594 11.292969 100.507812 11.292969 C 100.0625 11.273438 99.734375 11.273438 99.535156 11.292969 C 99.332031 11.292969 99.074219 11.328125 98.761719 11.394531 C 98.449219 11.464844 98.226562 11.574219 98.089844 11.734375 C 97.933594 11.910156 97.855469 12.125 97.855469 12.371094 C 97.855469 15.359375 97.890625 19.773438 97.957031 25.613281 Z M 116.890625 27.0625 C 116.890625 24.367188 117.359375 21.761719 118.300781 19.246094 C 119.238281 16.753906 120.671875 14.640625 122.597656 12.910156 C 124.296875 11.339844 126.289062 10.238281 128.570312 9.609375 C 130.855469 8.980469 133.503906 8.667969 136.527344 8.667969 C 141.160156 8.667969 144.804688 9.855469 147.46875 12.238281 C 150.582031 15.089844 152.136719 19.066406 152.136719 24.164062 C 152.136719 26.835938 151.777344 29.261719 151.0625 31.441406 C 150.324219 33.621094 149.328125 35.4375 148.074219 36.898438 C 146.820312 38.359375 145.320312 39.570312 143.574219 40.535156 C 141.851562 41.523438 140.007812 42.242188 138.039062 42.691406 C 136.089844 43.121094 134.007812 43.332031 131.792969 43.332031 C 127.5625 43.332031 124.164062 42.164062 121.589844 39.828125 C 119.957031 38.324219 118.769531 36.449219 118.03125 34.203125 C 117.269531 31.957031 116.890625 29.578125 116.890625 27.0625 Z M 123.402344 25.34375 C 123.402344 26.714844 123.511719 28.09375 123.738281 29.488281 C 123.984375 30.878906 124.386719 32.28125 124.945312 33.699219 C 125.527344 35.136719 126.242188 36.394531 127.09375 37.472656 C 127.945312 38.550781 129.039062 39.4375 130.382812 40.132812 C 131.726562 40.828125 133.214844 41.175781 134.847656 41.175781 C 136.4375 41.175781 137.859375 40.894531 139.109375 40.335938 C 140.363281 39.796875 141.382812 39.078125 142.164062 38.179688 C 142.949219 37.28125 143.585938 36.214844 144.078125 34.976562 C 144.59375 33.742188 144.953125 32.496094 145.152344 31.238281 C 145.332031 29.980469 145.421875 28.667969 145.421875 27.296875 C 145.421875 26.285156 145.378906 25.285156 145.289062 24.296875 C 145.199219 23.289062 145.042969 22.222656 144.816406 21.097656 C 144.570312 19.996094 144.269531 18.941406 143.910156 17.929688 C 143.53125 16.941406 143.050781 15.988281 142.46875 15.066406 C 141.886719 14.148438 141.238281 13.359375 140.519531 12.710938 C 139.78125 12.058594 138.898438 11.53125 137.871094 11.125 C 136.839844 10.746094 135.722656 10.554688 134.511719 10.554688 C 133.035156 10.554688 131.679688 10.855469 130.449219 11.464844 C 129.199219 12.070312 128.144531 12.867188 127.296875 13.855469 C 126.445312 14.84375 125.71875 15.988281 125.113281 17.292969 C 124.507812 18.570312 124.074219 19.898438 123.804688 21.265625 C 123.535156 22.636719 123.402344 23.996094 123.402344 25.34375 Z M 165.226562 27.296875 L 165.730469 40.707031 L 159.285156 42.996094 L 158.847656 42.59375 C 159.273438 35.269531 159.488281 27.960938 159.488281 20.660156 C 159.488281 16.371094 159.441406 13.878906 159.351562 13.179688 C 159.285156 12.753906 159.105469 12.382812 158.816406 12.070312 C 158.546875 11.777344 158.15625 11.5625 157.640625 11.429688 C 157.148438 11.292969 156.734375 11.203125 156.398438 11.160156 C 156.039062 11.09375 155.59375 11.046875 155.054688 11.023438 L 155.054688 9.8125 L 155.289062 9.542969 L 170.398438 9.542969 C 177.828125 9.542969 181.542969 11.902344 181.542969 16.617188 C 181.542969 19.425781 180.746094 21.535156 179.15625 22.949219 C 178.574219 23.511719 177.859375 23.996094 177.007812 24.398438 C 176.179688 24.828125 175.453125 25.140625 174.828125 25.34375 C 174.179688 25.546875 173.328125 25.78125 172.277344 26.050781 L 172.074219 26.589844 C 177.289062 32.722656 180.691406 36.652344 182.28125 38.382812 C 182.90625 39.011719 183.433594 39.527344 183.855469 39.929688 L 184.023438 40.707031 L 178.519531 43.097656 L 177.511719 42.996094 L 165.832031 27.363281 C 165.765625 27.320312 165.5625 27.296875 165.226562 27.296875 Z M 165.226562 25.34375 C 166.480469 25.34375 167.867188 25.152344 169.390625 24.769531 C 170.910156 24.367188 171.996094 23.839844 172.644531 23.1875 C 174.144531 21.613281 174.894531 19.660156 174.894531 17.324219 C 174.894531 15.371094 174.246094 13.886719 172.949219 12.878906 C 171.648438 11.890625 169.949219 11.394531 167.84375 11.394531 C 167.800781 11.394531 167.6875 11.394531 167.507812 11.394531 C 167.351562 11.394531 167.242188 11.394531 167.175781 11.394531 C 167.105469 11.394531 166.996094 11.394531 166.839844 11.394531 C 166.683594 11.417969 166.570312 11.429688 166.503906 11.429688 C 166.414062 11.453125 166.300781 11.484375 166.167969 11.53125 C 166.054688 11.574219 165.964844 11.621094 165.898438 11.664062 C 165.832031 11.710938 165.753906 11.765625 165.664062 11.832031 C 165.574219 11.902344 165.519531 11.992188 165.496094 12.101562 C 165.449219 12.214844 165.417969 12.339844 165.394531 12.472656 C 165.394531 12.539062 165.371094 13.339844 165.328125 14.867188 C 165.304688 16.371094 165.28125 18.15625 165.261719 20.222656 C 165.238281 22.289062 165.226562 23.996094 165.226562 25.34375 Z M 201.414062 24.769531 L 201.414062 25.277344 C 204.726562 25.566406 207.277344 26.355469 209.066406 27.632812 C 210.878906 28.914062 211.785156 30.65625 211.785156 32.855469 C 211.785156 34.339844 211.515625 35.652344 210.980469 36.796875 C 210.441406 37.941406 209.738281 38.886719 208.863281 39.628906 C 207.992188 40.347656 206.941406 40.941406 205.710938 41.414062 C 204.5 41.90625 203.25 42.242188 201.949219 42.421875 C 200.675781 42.625 199.308594 42.726562 197.855469 42.726562 L 186.410156 42.726562 L 186.410156 41.953125 C 186.832031 41.683594 187.15625 41.433594 187.382812 41.210938 C 187.628906 40.964844 187.796875 40.695312 187.886719 40.402344 C 187.996094 40.089844 188.0625 39.828125 188.085938 39.628906 C 188.085938 39.449219 188.085938 39.121094 188.085938 38.652344 L 188.085938 15.945312 C 188.085938 15.71875 188.097656 15.414062 188.121094 15.035156 C 188.144531 14.675781 188.152344 14.40625 188.152344 14.226562 C 188.152344 14.066406 188.132812 13.855469 188.085938 13.585938 C 188.042969 13.292969 187.964844 13.078125 187.851562 12.945312 C 187.738281 12.808594 187.570312 12.628906 187.347656 12.40625 C 187.148438 12.203125 186.878906 12.011719 186.542969 11.832031 C 186.207031 11.675781 185.792969 11.507812 185.300781 11.328125 C 184.785156 11.148438 184.191406 10.957031 183.523438 10.753906 L 183.523438 9.746094 L 183.789062 9.476562 L 198.292969 9.476562 C 206.527344 9.476562 210.644531 11.878906 210.644531 16.683594 C 210.644531 17.832031 210.375 18.875 209.839844 19.816406 C 209.300781 20.761719 208.5625 21.546875 207.625 22.175781 C 206.707031 22.828125 205.730469 23.355469 204.703125 23.757812 C 203.671875 24.1875 202.578125 24.523438 201.414062 24.769531 Z M 193.960938 26.253906 L 193.960938 37.101562 C 193.960938 37.574219 193.960938 37.886719 193.960938 38.042969 C 193.960938 38.203125 193.972656 38.460938 193.996094 38.820312 C 194.015625 39.15625 194.050781 39.390625 194.09375 39.527344 C 194.140625 39.640625 194.21875 39.796875 194.332031 40 C 194.417969 40.222656 194.53125 40.367188 194.667969 40.4375 C 194.800781 40.503906 194.96875 40.570312 195.167969 40.636719 C 195.371094 40.707031 195.617188 40.738281 195.90625 40.738281 C 198.570312 40.738281 200.742188 40.019531 202.421875 38.582031 C 204.121094 37.125 204.972656 35.179688 204.972656 32.753906 C 204.972656 31.160156 204.242188 29.667969 202.789062 28.273438 C 202.207031 27.734375 201.367188 27.308594 200.273438 26.992188 C 199.152344 26.679688 198.15625 26.488281 197.285156 26.421875 C 196.410156 26.355469 195.304688 26.296875 193.960938 26.253906 Z M 193.960938 14.125 L 193.960938 24.46875 C 197.316406 24.46875 199.867188 23.828125 201.613281 22.546875 C 203.382812 21.246094 204.265625 19.414062 204.265625 17.054688 C 204.265625 13.304688 201.671875 11.429688 196.480469 11.429688 C 195.898438 11.429688 195.257812 11.519531 194.566406 11.699219 C 194.296875 11.765625 194.128906 11.957031 194.0625 12.269531 C 193.996094 12.5625 193.960938 13.058594 193.960938 13.753906 C 193.960938 13.84375 193.960938 13.910156 193.960938 13.957031 C 193.960938 14.023438 193.960938 14.078125 193.960938 14.125 Z M 215.476562 27.0625 C 215.476562 24.367188 215.949219 21.761719 216.886719 19.246094 C 217.828125 16.753906 219.25 14.640625 221.152344 12.910156 C 222.875 11.339844 224.878906 10.238281 227.160156 9.609375 C 229.441406 8.980469 232.082031 8.667969 235.082031 8.667969 C 239.738281 8.667969 243.382812 9.855469 246.023438 12.238281 C 249.15625 15.089844 250.722656 19.066406 250.722656 24.164062 C 250.722656 26.835938 250.355469 29.261719 249.617188 31.441406 C 248.902344 33.621094 247.914062 35.4375 246.664062 36.898438 C 245.410156 38.359375 243.910156 39.570312 242.164062 40.535156 C 240.441406 41.523438 238.59375 42.242188 236.625 42.691406 C 234.679688 43.121094 232.597656 43.332031 230.382812 43.332031 C 226.152344 43.332031 222.75 42.164062 220.175781 39.828125 C 218.542969 38.324219 217.347656 36.449219 216.585938 34.203125 C 215.847656 31.957031 215.476562 29.578125 215.476562 27.0625 Z M 221.957031 25.34375 C 221.957031 26.714844 222.078125 28.09375 222.324219 29.488281 C 222.550781 30.878906 222.953125 32.28125 223.535156 33.699219 C 224.117188 35.136719 224.832031 36.394531 225.683594 37.472656 C 226.53125 38.550781 227.617188 39.4375 228.9375 40.132812 C 230.28125 40.828125 231.78125 41.175781 233.4375 41.175781 C 235.027344 41.175781 236.445312 40.894531 237.699219 40.335938 C 238.953125 39.796875 239.960938 39.078125 240.722656 38.179688 C 241.503906 37.28125 242.152344 36.214844 242.667969 34.976562 C 243.160156 33.742188 243.507812 32.496094 243.707031 31.238281 C 243.910156 29.980469 244.011719 28.667969 244.011719 27.296875 C 244.011719 26.285156 243.964844 25.285156 243.875 24.296875 C 243.785156 23.289062 243.617188 22.222656 243.371094 21.097656 C 243.148438 19.996094 242.847656 18.941406 242.464844 17.929688 C 242.109375 16.941406 241.636719 15.988281 241.058594 15.066406 C 240.476562 14.148438 239.816406 13.359375 239.078125 12.710938 C 238.335938 12.058594 237.464844 11.53125 236.457031 11.125 C 235.429688 10.746094 234.308594 10.554688 233.101562 10.554688 C 231.625 10.554688 230.257812 10.855469 229.007812 11.464844 C 227.773438 12.070312 226.734375 12.867188 225.882812 13.855469 C 225.035156 14.84375 224.304688 15.988281 223.703125 17.292969 C 223.097656 18.570312 222.660156 19.898438 222.394531 21.265625 C 222.101562 22.636719 221.957031 23.996094 221.957031 25.34375 Z M 221.957031 25.34375 "/>
<path style=" stroke:none;fill-rule:nonzero;fill:rgb(100%,100%,100%);fill-opacity:1;" d="M 36.246094 11.28125 L 28.945312 11.28125 L 28.945312 9.355469 C 28.90625 4.242188 24.753906 0.0898438 19.648438 0.0898438 C 14.542969 0.0898438 10.386719 4.238281 10.351562 9.355469 L 10.351562 11.28125 L 3.050781 11.28125 L 0.375 46.351562 C 0.375 49.519531 2.9375 52.089844 6.09375 52.089844 L 33.199219 52.089844 C 36.359375 52.089844 38.917969 49.519531 38.917969 46.351562 Z M 11.742188 18.050781 C 10.972656 18.050781 10.351562 17.425781 10.351562 16.65625 C 10.351562 15.886719 10.972656 15.261719 11.742188 15.261719 C 12.507812 15.261719 13.128906 15.886719 13.128906 16.65625 C 13.128906 17.425781 12.507812 18.050781 11.742188 18.050781 Z M 13.132812 11.28125 L 13.132812 9.355469 L 13.136719 9.355469 C 13.136719 5.746094 16.050781 2.816406 19.648438 2.816406 C 23.246094 2.816406 26.160156 5.746094 26.160156 9.355469 L 26.164062 9.355469 L 26.164062 11.28125 Z M 27.492188 18.050781 C 26.722656 18.050781 26.101562 17.425781 26.101562 16.65625 C 26.101562 15.886719 26.722656 15.261719 27.492188 15.261719 C 28.257812 15.261719 28.878906 15.886719 28.878906 16.65625 C 28.878906 17.425781 28.257812 18.050781 27.492188 18.050781 Z M 27.492188 18.050781 "/>
</g>
</svg>
