<svg data-v-423bf9ae="" xmlns="http://www.w3.org/2000/svg" viewBox="0 0 436 90" class="iconLeft"><!----><!----><!----><g data-v-423bf9ae="" id="90f22176-f701-4852-9e71-33911811ce0f" fill="#ee0290" transform="matrix(5.830904483795166,0,0,5.830904483795166,82.75137329101562,-25.874643325805664)"><path d="M0.72 12.47L0.72 12.47L0.72 12.47Q0.72 11.27 1.15 10.15L1.15 10.15L1.15 10.15Q1.57 9.04 2.42 8.27L2.42 8.27L2.42 8.27Q3.19 7.57 4.20 7.29L4.20 7.29L4.20 7.29Q5.22 7.01 6.57 7.01L6.57 7.01L6.57 7.01Q8.65 7.01 9.83 8.07L9.83 8.07L9.83 8.07Q11.22 9.34 11.22 11.61L11.22 11.61L11.22 11.61Q11.22 12.80 10.90 13.77L10.90 13.77L10.90 13.77Q10.58 14.74 10.01 15.39L10.01 15.39L10.01 15.39Q9.45 16.04 8.68 16.47L8.68 16.47L8.68 16.47Q7.90 16.91 7.03 17.11L7.03 17.11L7.03 17.11Q6.15 17.30 5.17 17.30L5.17 17.30L5.17 17.30Q3.27 17.30 2.13 16.26L2.13 16.26L2.13 16.26Q1.39 15.59 1.06 14.59L1.06 14.59L1.06 14.59Q0.72 13.59 0.72 12.47ZM2.66 11.96L2.66 11.96L2.66 11.96Q2.66 12.57 2.77 13.19L2.77 13.19L2.77 13.19Q2.87 13.81 3.13 14.44L3.13 14.44L3.13 14.44Q3.38 15.08 3.76 15.56L3.76 15.56L3.76 15.56Q4.14 16.04 4.74 16.35L4.74 16.35L4.74 16.35Q5.34 16.66 6.08 16.66L6.08 16.66L6.08 16.66Q6.79 16.66 7.35 16.41L7.35 16.41L7.35 16.41Q7.90 16.17 8.25 15.77L8.25 15.77L8.25 15.77Q8.60 15.37 8.83 14.82L8.83 14.82L8.83 14.82Q9.05 14.27 9.14 13.71L9.14 13.71L9.14 13.71Q9.23 13.15 9.23 12.54L9.23 12.54L9.23 12.54Q9.23 12.09 9.19 11.65L9.19 11.65L9.19 11.65Q9.15 11.20 9.04 10.70L9.04 10.70L9.04 10.70Q8.93 10.21 8.77 9.76L8.77 9.76L8.77 9.76Q8.61 9.32 8.35 8.91L8.35 8.91L8.35 8.91Q8.09 8.50 7.76 8.21L7.76 8.21L7.76 8.21Q7.43 7.92 6.97 7.74L6.97 7.74L6.97 7.74Q6.51 7.57 5.97 7.57L5.97 7.57L5.97 7.57Q5.32 7.57 4.76 7.84L4.76 7.84L4.76 7.84Q4.20 8.11 3.82 8.55L3.82 8.55L3.82 8.55Q3.45 8.99 3.18 9.57L3.18 9.57L3.18 9.57Q2.91 10.14 2.78 10.75L2.78 10.75L2.78 10.75Q2.66 11.36 2.66 11.96ZM15.07 16.67L15.07 16.67L13.28 17.17L13.12 17.04L13.12 17.04Q13.23 14.61 13.23 10.66L13.23 10.66L13.23 10.66Q13.23 8.80 13.17 8.37L13.17 8.37L13.17 8.37Q13.13 8.19 13.01 8.07L13.01 8.07L13.01 8.07Q12.89 7.94 12.69 7.88L12.69 7.88L12.69 7.88Q12.50 7.81 12.35 7.78L12.35 7.78L12.35 7.78Q12.20 7.75 11.97 7.72L11.97 7.72L11.97 7.42L12.08 7.30L16.91 7.30L16.91 7.30Q19.92 7.30 19.92 9.53L19.92 9.53L19.92 9.53Q19.92 10.99 19.00 11.84L19.00 11.84L19.00 11.84Q18.16 12.63 16.18 12.79L16.18 12.79L16.18 12.79Q16.06 12.80 15.91 12.79L15.91 12.79L15.91 12.79Q15.76 12.78 15.59 12.79L15.59 12.79L15.59 12.79Q15.43 12.80 15.30 12.82L15.30 12.82L15.30 12.82Q15.16 12.84 15.08 12.93L15.08 12.93L15.08 12.93Q14.99 13.01 14.99 13.14L14.99 13.14L14.99 13.14Q14.99 13.44 15.07 16.67ZM14.99 12.04L14.99 12.04L14.99 12.04Q14.99 12.16 15.10 12.24L15.10 12.24L15.10 12.24Q15.22 12.32 15.37 12.32L15.37 12.32L15.37 12.32Q16.55 12.32 17.24 11.59L17.24 11.59L17.24 11.59Q17.93 10.86 17.93 9.78L17.93 9.78L17.93 9.78Q17.93 8.93 17.41 8.36L17.41 8.36L17.41 8.36Q16.89 7.79 15.98 7.79L15.98 7.79L15.98 7.79Q15.94 7.79 15.75 7.79L15.75 7.79L15.75 7.79Q15.55 7.78 15.46 7.79L15.46 7.79L15.46 7.79Q15.37 7.79 15.23 7.82L15.23 7.82L15.23 7.82Q15.09 7.85 15.03 7.92L15.03 7.92L15.03 7.92Q14.96 8.00 14.96 8.11L14.96 8.11L14.96 8.11Q14.96 9.44 14.99 12.04ZM20.63 12.47L20.63 12.47L20.63 12.47Q20.63 11.27 21.05 10.15L21.05 10.15L21.05 10.15Q21.47 9.04 22.33 8.27L22.33 8.27L22.33 8.27Q23.09 7.57 24.11 7.29L24.11 7.29L24.11 7.29Q25.13 7.01 26.48 7.01L26.48 7.01L26.48 7.01Q28.55 7.01 29.74 8.07L29.74 8.07L29.74 8.07Q31.13 9.34 31.13 11.61L31.13 11.61L31.13 11.61Q31.13 12.80 30.81 13.77L30.81 13.77L30.81 13.77Q30.48 14.74 29.92 15.39L29.92 15.39L29.92 15.39Q29.36 16.04 28.58 16.47L28.58 16.47L28.58 16.47Q27.81 16.91 26.93 17.11L26.93 17.11L26.93 17.11Q26.06 17.30 25.07 17.30L25.07 17.30L25.07 17.30Q23.18 17.30 22.03 16.26L22.03 16.26L22.03 16.26Q21.30 15.59 20.97 14.59L20.97 14.59L20.97 14.59Q20.63 13.59 20.63 12.47ZM22.57 11.96L22.57 11.96L22.57 11.96Q22.57 12.57 22.67 13.19L22.67 13.19L22.67 13.19Q22.78 13.81 23.03 14.44L23.03 14.44L23.03 14.44Q23.29 15.08 23.67 15.56L23.67 15.56L23.67 15.56Q24.05 16.04 24.65 16.35L24.65 16.35L24.65 16.35Q25.25 16.66 25.98 16.66L25.98 16.66L25.98 16.66Q26.69 16.66 27.25 16.41L27.25 16.41L27.25 16.41Q27.81 16.17 28.16 15.77L28.16 15.77L28.16 15.77Q28.51 15.37 28.73 14.82L28.73 14.82L28.73 14.82Q28.96 14.27 29.05 13.71L29.05 13.71L29.05 13.71Q29.13 13.15 29.13 12.54L29.13 12.54L29.13 12.54Q29.13 12.09 29.09 11.65L29.09 11.65L29.09 11.65Q29.05 11.20 28.95 10.70L28.95 10.70L28.95 10.70Q28.84 10.21 28.68 9.76L28.68 9.76L28.68 9.76Q28.51 9.32 28.25 8.91L28.25 8.91L28.25 8.91Q27.99 8.50 27.67 8.21L27.67 8.21L27.67 8.21Q27.34 7.92 26.88 7.74L26.88 7.74L26.88 7.74Q26.42 7.57 25.88 7.57L25.88 7.57L25.88 7.57Q25.22 7.57 24.67 7.84L24.67 7.84L24.67 7.84Q24.11 8.11 23.73 8.55L23.73 8.55L23.73 8.55Q23.35 8.99 23.08 9.57L23.08 9.57L23.08 9.57Q22.81 10.14 22.69 10.75L22.69 10.75L22.69 10.75Q22.57 11.36 22.57 11.96ZM35.03 12.54L35.03 12.54L35.18 16.52L33.26 17.20L33.13 17.08L33.13 17.08Q33.32 13.82 33.32 10.57L33.32 10.57L33.32 10.57Q33.32 8.66 33.28 8.35L33.28 8.35L33.28 8.35Q33.25 8.16 33.12 8.02L33.12 8.02L33.12 8.02Q33.00 7.89 32.77 7.83L32.77 7.83L32.77 7.83Q32.55 7.77 32.40 7.75L32.40 7.75L32.40 7.75Q32.24 7.72 32.00 7.71L32.00 7.71L32.00 7.35L32.07 7.27L36.57 7.27L36.57 7.27Q39.89 7.27 39.89 9.37L39.89 9.37L39.89 9.37Q39.89 10.62 39.18 11.25L39.18 11.25L39.18 11.25Q38.92 11.50 38.54 11.68L38.54 11.68L38.54 11.68Q38.17 11.87 37.89 11.96L37.89 11.96L37.89 11.96Q37.60 12.05 37.13 12.17L37.13 12.17L37.07 12.33L37.07 12.33Q39.40 15.06 40.11 15.83L40.11 15.83L40.11 15.83Q40.39 16.11 40.58 16.29L40.58 16.29L40.63 16.52L38.99 17.23L38.69 17.20L35.21 12.56L35.21 12.56Q35.18 12.54 35.03 12.54ZM35.03 11.96L35.03 11.96L35.03 11.96Q35.59 11.96 36.27 11.79L36.27 11.79L36.27 11.79Q36.95 11.61 37.24 11.32L37.24 11.32L37.24 11.32Q37.91 10.62 37.91 9.58L37.91 9.58L37.91 9.58Q37.91 8.71 37.33 8.26L37.33 8.26L37.33 8.26Q36.75 7.82 35.81 7.82L35.81 7.82L35.81 7.82Q35.79 7.82 35.71 7.82L35.71 7.82L35.71 7.82Q35.64 7.82 35.61 7.82L35.61 7.82L35.61 7.82Q35.58 7.82 35.51 7.82L35.51 7.82L35.51 7.82Q35.44 7.83 35.41 7.83L35.41 7.83L35.41 7.83Q35.37 7.84 35.31 7.86L35.31 7.86L35.31 7.86Q35.26 7.88 35.23 7.90L35.23 7.90L35.23 7.90Q35.20 7.92 35.16 7.95L35.16 7.95L35.16 7.95Q35.12 7.98 35.11 8.03L35.11 8.03L35.11 8.03Q35.09 8.08 35.08 8.14L35.08 8.14L35.08 8.14Q35.08 8.17 35.06 8.85L35.06 8.85L35.06 8.85Q35.05 9.52 35.04 10.44L35.04 10.44L35.04 10.44Q35.03 11.36 35.03 11.96ZM45.81 11.79L45.81 11.79L45.81 11.94L45.81 11.94Q47.29 12.07 48.09 12.64L48.09 12.64L48.09 12.64Q48.90 13.21 48.90 14.19L48.90 14.19L48.90 14.19Q48.90 14.85 48.66 15.36L48.66 15.36L48.66 15.36Q48.42 15.87 48.03 16.20L48.03 16.20L48.03 16.20Q47.64 16.52 47.09 16.73L47.09 16.73L47.09 16.73Q46.55 16.95 45.97 17.03L45.97 17.03L45.97 17.03Q45.40 17.12 44.75 17.12L44.75 17.12L41.34 17.12L41.34 16.89L41.34 16.89Q41.53 16.77 41.63 16.67L41.63 16.67L41.63 16.67Q41.74 16.56 41.78 16.43L41.78 16.43L41.78 16.43Q41.83 16.29 41.84 16.20L41.84 16.20L41.84 16.20Q41.84 16.12 41.84 15.91L41.84 15.91L41.84 9.17L41.84 9.17Q41.84 9.07 41.85 8.90L41.85 8.90L41.85 8.90Q41.86 8.74 41.86 8.66L41.86 8.66L41.86 8.66Q41.86 8.59 41.84 8.47L41.84 8.47L41.84 8.47Q41.82 8.34 41.77 8.28L41.77 8.28L41.77 8.28Q41.72 8.22 41.62 8.12L41.62 8.12L41.62 8.12Q41.53 8.03 41.38 7.95L41.38 7.95L41.38 7.95Q41.23 7.88 41.01 7.80L41.01 7.80L41.01 7.80Q40.78 7.72 40.48 7.63L40.48 7.63L40.48 7.33L40.56 7.25L44.88 7.25L44.88 7.25Q48.56 7.25 48.56 9.39L48.56 9.39L48.56 9.39Q48.56 9.90 48.32 10.32L48.32 10.32L48.32 10.32Q48.08 10.74 47.66 11.02L47.66 11.02L47.66 11.02Q47.25 11.31 46.79 11.49L46.79 11.49L46.79 11.49Q46.33 11.68 45.81 11.79ZM43.59 12.23L43.59 15.45L43.59 15.45Q43.59 15.66 43.59 15.73L43.59 15.73L43.59 15.73Q43.59 15.80 43.60 15.96L43.60 15.96L43.60 15.96Q43.61 16.11 43.63 16.17L43.63 16.17L43.63 16.17Q43.65 16.22 43.70 16.31L43.70 16.31L43.70 16.31Q43.74 16.41 43.80 16.44L43.80 16.44L43.80 16.44Q43.86 16.47 43.95 16.50L43.95 16.50L43.95 16.50Q44.04 16.53 44.17 16.53L44.17 16.53L44.17 16.53Q45.36 16.53 46.11 15.89L46.11 15.89L46.11 15.89Q46.87 15.24 46.87 14.16L46.87 14.16L46.87 14.16Q46.87 13.45 46.22 12.83L46.22 12.83L46.22 12.83Q45.96 12.59 45.47 12.45L45.47 12.45L45.47 12.45Q44.97 12.31 44.58 12.28L44.58 12.28L44.58 12.28Q44.19 12.25 43.59 12.23L43.59 12.23ZM43.59 8.63L43.59 11.70L43.59 11.70Q45.09 11.70 45.87 11.13L45.87 11.13L45.87 11.13Q46.66 10.55 46.66 9.50L46.66 9.50L46.66 9.50Q46.66 7.83 44.34 7.83L44.34 7.83L44.34 7.83Q44.08 7.83 43.77 7.91L43.77 7.91L43.77 7.91Q43.65 7.94 43.62 8.08L43.62 8.08L43.62 8.08Q43.59 8.21 43.59 8.52L43.59 8.52L43.59 8.52Q43.59 8.56 43.59 8.58L43.59 8.58L43.59 8.58Q43.59 8.61 43.59 8.63L43.59 8.63ZM50.00 12.47L50.00 12.47L50.00 12.47Q50.00 11.27 50.42 10.15L50.42 10.15L50.42 10.15Q50.84 9.04 51.69 8.27L51.69 8.27L51.69 8.27Q52.46 7.57 53.48 7.29L53.48 7.29L53.48 7.29Q54.50 7.01 55.84 7.01L55.84 7.01L55.84 7.01Q57.92 7.01 59.10 8.07L59.10 8.07L59.10 8.07Q60.50 9.34 60.50 11.61L60.50 11.61L60.50 11.61Q60.50 12.80 60.17 13.77L60.17 13.77L60.17 13.77Q59.85 14.74 59.29 15.39L59.29 15.39L59.29 15.39Q58.73 16.04 57.95 16.47L57.95 16.47L57.95 16.47Q57.18 16.91 56.30 17.11L56.30 17.11L56.30 17.11Q55.43 17.30 54.44 17.30L54.44 17.30L54.44 17.30Q52.55 17.30 51.40 16.26L51.40 16.26L51.40 16.26Q50.67 15.59 50.33 14.59L50.33 14.59L50.33 14.59Q50.00 13.59 50.00 12.47ZM51.93 11.96L51.93 11.96L51.93 11.96Q51.93 12.57 52.04 13.19L52.04 13.19L52.04 13.19Q52.14 13.81 52.40 14.44L52.40 14.44L52.40 14.44Q52.66 15.08 53.04 15.56L53.04 15.56L53.04 15.56Q53.42 16.04 54.01 16.35L54.01 16.35L54.01 16.35Q54.61 16.66 55.35 16.66L55.35 16.66L55.35 16.66Q56.06 16.66 56.62 16.41L56.62 16.41L56.62 16.41Q57.18 16.17 57.52 15.77L57.52 15.77L57.52 15.77Q57.87 15.37 58.10 14.82L58.10 14.82L58.10 14.82Q58.32 14.27 58.41 13.71L58.41 13.71L58.41 13.71Q58.50 13.15 58.50 12.54L58.50 12.54L58.50 12.54Q58.50 12.09 58.46 11.65L58.46 11.65L58.46 11.65Q58.42 11.20 58.31 10.70L58.31 10.70L58.31 10.70Q58.21 10.21 58.04 9.76L58.04 9.76L58.04 9.76Q57.88 9.32 57.62 8.91L57.62 8.91L57.62 8.91Q57.36 8.50 57.03 8.21L57.03 8.21L57.03 8.21Q56.70 7.92 56.25 7.74L56.25 7.74L56.25 7.74Q55.79 7.57 55.25 7.57L55.25 7.57L55.25 7.57Q54.59 7.57 54.03 7.84L54.03 7.84L54.03 7.84Q53.48 8.11 53.10 8.55L53.10 8.55L53.10 8.55Q52.72 8.99 52.45 9.57L52.45 9.57L52.45 9.57Q52.18 10.14 52.06 10.75L52.06 10.75L52.06 10.75Q51.93 11.36 51.93 11.96Z"></path></g><!----><g data-v-423bf9ae="" id="644fd0fb-dbdb-46fb-b5de-d7581f24156f" transform="matrix(1.0503220558166504,0,0,1.0503220558166504,-18.387109756469727,-7.360104560852051)" stroke="none" fill="#ee0290"><path d="M77.451 25.6H65.374v-3.178C65.314 13.995 58.442 7.156 50 7.156s-15.314 6.838-15.374 15.266V25.6H22.549l-4.42 57.788a9.456 9.456 0 0 0 9.456 9.456h44.83a9.457 9.457 0 0 0 9.456-9.456L77.451 25.6zM36.924 36.751a2.298 2.298 0 1 1 0-4.596 2.298 2.298 0 0 1 0 4.596zM39.223 25.6v-3.178h.006c0-5.949 4.823-10.771 10.771-10.771 5.949 0 10.772 4.822 10.772 10.771h.006V25.6H39.223zm23.749 11.151a2.298 2.298 0 1 1 0-4.596 2.298 2.298 0 0 1 0 4.596z"></path></g><!----></svg>